<?xml version="1.0" standalone="no"?>
<!DOCTYPE svg PUBLIC "-//W3C//DTD SVG 20010904//EN"
 "http://www.w3.org/TR/2001/REC-SVG-20010904/DTD/svg10.dtd">
<svg version="1.0" xmlns="http://www.w3.org/2000/svg"
 width="512.000000pt" height="512.000000pt" viewBox="0 0 512.000000 512.000000"
 preserveAspectRatio="xMidYMid meet">

<g transform="translate(0.000000,512.000000) scale(0.100000,-0.100000)"
fill="#000000" stroke="none">
<path d="M794 5049 c-362 -42 -670 -315 -766 -679 l-23 -85 0 -1725 0 -1725
23 -85 c99 -374 402 -637 785 -679 134 -15 3360 -15 3494 0 383 42 686 305
785 679 l23 85 0 1725 0 1725 -23 85 c-98 371 -398 633 -777 679 -107 13
-3409 13 -3521 0z m1161 -1296 c31 -82 774 -2173 777 -2188 3 -20 -3 -20 -246
-20 l-249 0 -90 263 -90 262 -396 0 -397 0 -85 -262 -85 -263 -224 -3 c-123
-1 -227 1 -232 6 -5 5 144 446 338 1003 191 547 352 1017 359 1044 8 28 16 78
20 113 l7 62 293 0 c270 0 293 -1 300 -17z m1930 -517 c270 -73 447 -280 496
-580 17 -109 8 -352 -15 -374 -15 -15 -67 -17 -532 -20 -477 -3 -515 -5 -510
-20 3 -9 8 -30 12 -47 12 -53 61 -139 101 -177 83 -80 212 -122 373 -121 115
0 283 25 369 54 30 11 56 19 58 19 2 0 2 -87 1 -192 l-3 -193 -62 -22 c-216
-77 -541 -91 -753 -33 -154 43 -295 132 -394 250 -53 64 -132 230 -156 330
-92 380 43 812 314 1004 104 74 198 113 324 136 72 13 308 4 377 -14z"/>
<path d="M1642 3339 c-33 -102 -252 -836 -252 -842 0 -4 122 -7 271 -7 213 0
270 3 266 13 -2 6 -62 199 -132 427 -70 228 -131 421 -135 429 -5 10 -11 4
-18 -20z"/>
<path d="M3544 2880 c-91 -28 -179 -125 -205 -225 -6 -22 -12 -48 -15 -57 -5
-17 14 -18 293 -18 164 0 304 4 312 9 19 12 9 97 -18 148 -23 46 -83 104 -131
129 -41 20 -186 29 -236 14z"/>
</g>
</svg>
