<?xml version="1.0" encoding="UTF-8"?>
<!DOCTYPE svg PUBLIC "-//W3C//DTD SVG 1.1//EN" "http://www.w3.org/Graphics/SVG/1.1/DTD/svg11.dtd">
<svg xmlns="http://www.w3.org/2000/svg" version="1.1" width="512px" height="512px" style="shape-rendering:geometricPrecision; text-rendering:geometricPrecision; image-rendering:optimizeQuality; fill-rule:evenodd; clip-rule:evenodd" xmlns:xlink="http://www.w3.org/1999/xlink">
<g><path style="opacity:0.994" fill="#000000" d="M 511.5,82.5 C 511.5,197.833 511.5,313.167 511.5,428.5C 502.02,471.811 475.353,497.311 431.5,505C 314.167,505.667 196.833,505.667 79.5,505C 35.6433,497.307 8.97665,471.807 -0.5,428.5C -0.5,313.167 -0.5,197.833 -0.5,82.5C 8.97665,39.193 35.6433,13.693 79.5,6C 196.833,5.33333 314.167,5.33333 431.5,6C 475.357,13.693 502.023,39.193 511.5,82.5 Z M 355.5,117.5 C 375.082,114.953 386.082,123.453 388.5,143C 386.001,162.502 375.001,171.169 355.5,169C 339.604,163.372 333.437,152.205 337,135.5C 340.416,126.583 346.583,120.583 355.5,117.5 Z M 178.5,134.5 C 197.845,134.167 217.178,134.5 236.5,135.5C 262.699,208.763 288.699,282.096 314.5,355.5C 314.392,356.442 314.059,357.275 313.5,358C 298.167,358.667 282.833,358.667 267.5,358C 266.299,357.097 265.465,355.931 265,354.5C 259.389,337.835 253.889,321.168 248.5,304.5C 221.5,304.5 194.5,304.5 167.5,304.5C 162.536,322.226 156.869,339.726 150.5,357C 143.1,358.134 135.6,358.634 128,358.5C 121.167,358.333 114.333,358.167 107.5,358C 106.833,357.333 106.167,356.667 105.5,356C 129.192,288.592 152.692,221.092 176,153.5C 177.308,147.229 178.141,140.896 178.5,134.5 Z M 339.5,188.5 C 354.909,187.859 370.076,188.526 385,190.5C 385.667,245.833 385.667,301.167 385,356.5C 384.5,357 384,357.5 383.5,358C 368.788,358.816 354.122,358.65 339.5,357.5C 338.171,301.099 338.171,244.766 339.5,188.5 Z"/></g>
<g><path style="opacity:0.949" fill="#000000" d="M 206.5,172.5 C 207.586,172.62 208.253,173.287 208.5,174.5C 217.3,203.566 226.3,232.566 235.5,261.5C 217.179,262.5 198.845,262.833 180.5,262.5C 188.961,232.448 197.628,202.448 206.5,172.5 Z"/></g>
</svg>
