<?xml version="1.0" standalone="no"?>
<!DOCTYPE svg PUBLIC "-//W3C//DTD SVG 20010904//EN"
 "http://www.w3.org/TR/2001/REC-SVG-20010904/DTD/svg10.dtd">
<svg version="1.0" xmlns="http://www.w3.org/2000/svg"
 width="512.000000pt" height="512.000000pt" viewBox="0 0 512.000000 512.000000"
 preserveAspectRatio="xMidYMid meet">

<g transform="translate(0.000000,512.000000) scale(0.100000,-0.100000)"
fill="#000000" stroke="none">
<path d="M2056 5093 c-38 -75 -500 -1432 -491 -1442 6 -6 1465 1449 1465 1461
0 5 -216 8 -480 8 l-479 0 -15 -27z"/>
<path d="M2297 4257 c-755 -750 -788 -785 -817 -850 -29 -65 -210 -590 -210
-609 0 -14 1924 1901 1928 1918 4 17 -53 220 -79 282 -10 23 -22 42 -26 42 -4
-1 -362 -353 -796 -783z"/>
<path d="M2947 4085 c-191 -191 -347 -353 -347 -361 0 -26 22 -114 28 -114 4
0 166 159 361 354 l354 354 -7 35 c-4 20 -15 45 -24 57 -18 22 -19 21 -365
-325z"/>
<path d="M3072 3658 c-335 -334 -353 -355 -347 -383 10 -53 189 -692 460
-1645 145 -509 289 -1019 319 -1135 64 -242 107 -387 135 -451 l20 -44 565 0
c311 0 567 4 570 8 2 4 -184 566 -414 1249 -230 682 -532 1581 -671 1997 -187
559 -257 756 -268 756 -8 0 -174 -159 -369 -352z"/>
<path d="M1775 2911 c-534 -534 -687 -692 -712 -738 -35 -61 -77 -176 -71
-193 2 -5 311 296 688 669 732 724 725 717 765 854 9 31 15 64 13 72 -2 9
-276 -258 -683 -664z"/>
<path d="M1513 2095 l-720 -714 -68 -188 c-114 -314 -404 -1177 -399 -1185 3
-5 254 -8 558 -8 l552 0 77 268 c475 1640 729 2533 723 2539 -1 2 -327 -319
-723 -712z"/>
</g>
</svg>
