<?xml version="1.0" standalone="no"?>
<!DOCTYPE svg PUBLIC "-//W3C//DTD SVG 20010904//EN"
 "http://www.w3.org/TR/2001/REC-SVG-20010904/DTD/svg10.dtd">
<svg version="1.0" xmlns="http://www.w3.org/2000/svg"
 width="512.000000pt" height="512.000000pt" viewBox="0 0 512.000000 512.000000"
 preserveAspectRatio="xMidYMid meet">

<g transform="translate(0.000000,512.000000) scale(0.100000,-0.100000)"
fill="#000000" stroke="none">
<path d="M794 5049 c-81 -9 -216 -50 -289 -86 -129 -65 -266 -183 -345 -297
-49 -72 -108 -203 -132 -296 l-23 -85 0 -1725 0 -1725 23 -85 c24 -93 83 -224
132 -296 79 -114 216 -232 345 -297 80 -40 204 -75 308 -86 134 -15 3360 -15
3494 0 383 42 686 305 785 679 l23 85 0 1725 0 1725 -23 85 c-24 93 -83 224
-132 296 -79 114 -216 232 -345 297 -77 38 -201 74 -300 86 -107 13 -3409 13
-3521 0z m976 -2179 l5 -905 503 -3 502 -2 0 -26 c0 -32 -59 -384 -66 -396 -3
-4 -319 -8 -704 -8 -627 0 -698 2 -704 16 -3 9 -6 509 -6 1113 0 849 3 1100
12 1109 9 9 70 12 233 10 l220 -3 5 -905z m2278 388 c13 -13 17 -424 4 -444
-4 -6 -54 -14 -112 -17 -162 -10 -320 -57 -405 -123 l-35 -26 0 -559 0 -559
-232 2 -233 3 -6 745 c-3 410 -10 791 -14 848 l-8 102 212 0 212 0 19 -43 c10
-23 22 -72 25 -107 l7 -65 51 49 c67 64 165 126 249 160 102 40 242 58 266 34z"/>
</g>
</svg>
