<?xml version="1.0" standalone="no"?>
<!DOCTYPE svg PUBLIC "-//W3C//DTD SVG 20010904//EN"
 "http://www.w3.org/TR/2001/REC-SVG-20010904/DTD/svg10.dtd">
<svg version="1.0" xmlns="http://www.w3.org/2000/svg"
 width="512.000000pt" height="512.000000pt" viewBox="0 0 512.000000 512.000000"
 preserveAspectRatio="xMidYMid meet">

<g transform="translate(0.000000,512.000000) scale(0.100000,-0.100000)"
fill="#000000" stroke="none">
<path d="M725 4672 c-120 -42 -205 -117 -258 -230 l-32 -67 0 -1816 0 -1815
37 -75 c46 -93 112 -158 206 -202 l67 -32 1816 0 1815 0 75 37 c93 46 158 112
202 206 l32 67 0 1815 0 1815 -32 67 c-44 94 -109 160 -202 206 l-75 37 -1800
2 c-1688 2 -1804 1 -1851 -15z m1405 -1257 l0 -425 430 0 430 0 0 425 0 425
425 0 425 0 0 -425 0 -425 -425 0 -425 0 0 -215 0 -215 210 0 210 0 0 -640 0
-640 -210 0 -210 0 -2 213 -3 212 -425 0 -425 0 -3 -212 -2 -213 -210 0 -210
0 0 640 0 640 210 0 210 0 0 215 0 215 -425 0 -425 0 0 425 0 425 425 0 425 0
0 -425z"/>
</g>
</svg>
