<?xml version="1.0" standalone="no"?>
<!DOCTYPE svg PUBLIC "-//W3C//DTD SVG 20010904//EN"
 "http://www.w3.org/TR/2001/REC-SVG-20010904/DTD/svg10.dtd">
<svg version="1.0" xmlns="http://www.w3.org/2000/svg"
 width="512.000000pt" height="512.000000pt" viewBox="0 0 512.000000 512.000000"
 preserveAspectRatio="xMidYMid meet">

<g transform="translate(0.000000,512.000000) scale(0.100000,-0.100000)"
fill="#000000" stroke="none">
<path d="M794 5049 c-81 -9 -216 -50 -289 -86 -129 -65 -266 -183 -345 -297
-49 -72 -108 -203 -132 -296 l-23 -85 0 -1725 0 -1725 23 -85 c24 -93 83 -224
132 -296 79 -114 216 -232 345 -297 80 -40 204 -75 308 -86 134 -15 3360 -15
3494 0 383 42 686 305 785 679 l23 85 0 1725 0 1725 -23 85 c-24 93 -83 224
-132 296 -79 114 -216 232 -345 297 -77 38 -201 74 -300 86 -107 13 -3409 13
-3521 0z m1251 -1269 c272 -26 464 -111 608 -271 188 -207 232 -575 101 -844
-140 -288 -432 -425 -908 -425 l-166 0 -2 -352 -3 -353 -227 -3 -228 -2 0
1120 c0 1059 1 1120 18 1121 9 1 145 5 302 8 157 4 310 8 340 9 30 1 105 -3
165 -8z m2109 -526 c12 -31 7 -429 -6 -442 -7 -7 -41 -12 -84 -12 -146 0 -327
-50 -416 -115 l-48 -35 0 -560 0 -560 -235 0 c-180 0 -237 3 -240 13 -2 6 -5
391 -7 855 l-3 842 201 0 c179 0 203 -2 217 -17 17 -20 37 -115 37 -177 l0
-40 58 55 c133 130 301 207 453 208 52 1 68 -2 73 -15z"/>
<path d="M1737 3363 l-57 -4 2 -357 3 -357 119 -3 c131 -3 260 15 351 49 84
31 168 117 190 194 26 87 17 223 -17 291 -45 87 -114 138 -233 171 -52 14
-258 24 -358 16z"/>
</g>
</svg>
