<?xml version="1.0" standalone="no"?>
<!DOCTYPE svg PUBLIC "-//W3C//DTD SVG 20010904//EN"
 "http://www.w3.org/TR/2001/REC-SVG-20010904/DTD/svg10.dtd">
<svg version="1.0" xmlns="http://www.w3.org/2000/svg"
 width="512.000000pt" height="512.000000pt" viewBox="0 0 512.000000 512.000000"
 preserveAspectRatio="xMidYMid meet">

<g transform="translate(0.000000,512.000000) scale(0.100000,-0.100000)"
fill="#000000" stroke="none">
<path d="M2271 4674 c-454 -62 -883 -273 -1209 -597 -329 -325 -536 -721 -612
-1170 -26 -155 -26 -175 3 -187 12 -5 268 -111 570 -234 l547 -225 68 34 c84
43 169 65 247 65 l62 0 248 363 249 362 13 100 c7 55 22 129 34 165 72 226
258 424 476 508 111 43 195 55 337 50 101 -4 136 -10 208 -35 335 -116 548
-412 548 -763 0 -248 -103 -465 -297 -625 -122 -100 -316 -175 -456 -175 l-58
0 -363 -260 -364 -259 -7 -74 c-20 -218 -148 -405 -340 -497 -96 -46 -159 -60
-267 -60 -157 0 -287 53 -408 167 -80 75 -123 142 -163 255 l-22 61 -180 74
c-99 41 -278 115 -398 165 -120 49 -221 87 -224 84 -10 -10 68 -219 127 -341
174 -354 459 -670 793 -877 255 -159 575 -270 887 -308 108 -13 358 -13 475 0
909 102 1657 778 1849 1670 100 467 41 958 -168 1385 -321 657 -956 1104
-1681 1185 -126 14 -400 11 -524 -6z"/>
<path d="M3185 3639 c-200 -26 -375 -175 -436 -368 -29 -92 -28 -234 1 -322
76 -227 275 -373 510 -373 141 0 254 44 355 136 144 131 209 319 171 498 -60
283 -317 467 -601 429z m245 -166 c82 -38 151 -108 193 -193 30 -60 32 -72 32
-170 0 -93 -3 -111 -27 -163 -38 -80 -117 -160 -197 -200 -61 -30 -72 -32
-171 -32 -92 0 -112 4 -160 26 -67 32 -150 104 -183 162 -89 151 -70 346 45
472 92 101 176 136 313 132 76 -2 100 -7 155 -34z"/>
<path d="M1795 2196 l-40 -12 50 -21 c28 -11 101 -42 163 -68 184 -77 256
-169 257 -330 0 -71 -4 -88 -33 -147 -59 -120 -160 -183 -297 -182 -74 0 -90
4 -220 58 -77 32 -146 61 -154 64 -20 8 13 -51 57 -100 171 -190 474 -197 656
-16 99 100 149 253 126 386 -39 227 -222 383 -447 381 -43 0 -96 -6 -118 -13z"/>
</g>
</svg>
