<?xml version="1.0" standalone="no"?>
<!DOCTYPE svg PUBLIC "-//W3C//DTD SVG 20010904//EN"
 "http://www.w3.org/TR/2001/REC-SVG-20010904/DTD/svg10.dtd">
<svg version="1.0" xmlns="http://www.w3.org/2000/svg"
 width="512.000000pt" height="512.000000pt" viewBox="0 0 512.000000 512.000000"
 preserveAspectRatio="xMidYMid meet">

<g transform="translate(0.000000,512.000000) scale(0.100000,-0.100000)"
fill="#000000" stroke="none">
<path d="M822 4785 c-188 -41 -361 -183 -444 -364 -61 -133 -59 -43 -56 -1894
l3 -1692 27 -73 c38 -105 83 -176 158 -252 76 -75 147 -120 252 -158 l73 -27
1720 0 1720 0 70 22 c98 31 189 87 265 163 75 76 120 148 158 252 l27 73 0
1725 0 1725 -27 73 c-60 167 -173 297 -319 370 -151 76 -29 72 -1894 71 -1371
0 -1681 -3 -1733 -14z m905 -1863 c402 -504 869 -1087 1037 -1294 168 -208
306 -384 306 -393 0 -13 -60 -15 -513 -15 -396 0 -517 3 -529 13 -8 6 -103
122 -210 257 -107 135 -329 414 -493 620 -164 206 -314 394 -332 418 l-33 44
0 627 c0 345 3 631 7 634 3 4 11 7 17 6 6 0 340 -413 743 -917z m2433 280 l0
-639 -30 -44 c-27 -41 -251 -328 -305 -391 l-23 -28 -516 0 c-283 0 -517 4
-520 8 -3 4 225 296 506 648 719 901 867 1084 878 1084 6 0 10 -231 10 -638z"/>
</g>
</svg>
