<?xml version="1.0" encoding="UTF-8"?>
<!DOCTYPE svg PUBLIC "-//W3C//DTD SVG 1.1//EN" "http://www.w3.org/Graphics/SVG/1.1/DTD/svg11.dtd">
<svg xmlns="http://www.w3.org/2000/svg" version="1.1" width="590px" height="140px" style="shape-rendering:geometricPrecision; text-rendering:geometricPrecision; image-rendering:optimizeQuality; fill-rule:evenodd; clip-rule:evenodd" xmlns:xlink="http://www.w3.org/1999/xlink">
<g><path style="opacity:0.917" fill="#fefffe" d="M 128.5,-0.5 C 132.5,-0.5 136.5,-0.5 140.5,-0.5C 143.643,0.506613 146.477,2.17328 149,4.5C 149.667,6.5 149.667,8.5 149,10.5C 146.537,13.9646 143.704,17.1312 140.5,20C 133.334,24.7509 126,29.2509 118.5,33.5C 133.455,39.0699 137.621,49.0699 131,63.5C 127.211,69.6232 122.378,74.7898 116.5,79C 87.0816,99.645 54.415,112.145 18.5,116.5C 10.7593,116.927 4.42596,114.26 -0.5,108.5C -0.5,105.167 -0.5,101.833 -0.5,98.5C 1.69966,95.1416 4.69966,92.6416 8.5,91C 41.5599,88.1339 70.2265,75.4672 94.5,53C 98.2904,49.8056 101.79,49.9722 105,53.5C 105.667,54.8333 105.667,56.1667 105,57.5C 93.2934,68.5425 80.46,78.0425 66.5,86C 83.1264,81.8607 98.793,75.194 113.5,66C 118.78,62.0716 122.447,57.0716 124.5,51C 122.104,44.6259 117.437,41.4592 110.5,41.5C 104.866,42.5754 99.1991,42.7421 93.5,42C 92.4238,40.2739 92.2571,38.4406 93,36.5C 103.427,29.7008 114.26,23.5342 125.5,18C 129.567,15.6392 133.233,12.8059 136.5,9.5C 121.639,10.2821 107.639,14.4488 94.5,22C 85.1667,28 75.8333,34 66.5,40C 57.9625,45.3124 49.2958,45.6457 40.5,41C 34.7527,33.8062 35.7527,27.4729 43.5,22C 46.8333,20.6667 50.1667,19.3333 53.5,18C 78.4334,11.0162 103.433,4.84955 128.5,-0.5 Z"/></g>
<g><path style="opacity:0.92" fill="#fefffe" d="M 511.5,139.5 C 508.167,139.5 504.833,139.5 501.5,139.5C 484.186,131.321 473.686,117.654 470,98.5C 468.922,92.4279 468.422,86.4279 468.5,80.5C 467.914,80.2907 467.414,79.9574 467,79.5C 461.415,83.3773 455.582,86.8773 449.5,90C 440.333,92.8333 437.167,89.6667 440,80.5C 447.572,65.0165 455.906,50.0165 465,35.5C 468.333,28.1667 471.667,20.8333 475,13.5C 477.128,10.3699 479.628,7.53656 482.5,5C 487.773,2.87504 492.94,3.0417 498,5.5C 499.422,8.03007 499.755,10.6967 499,13.5C 491.667,21.5 484.333,29.5 477,37.5C 469.567,49.1143 462.733,61.1143 456.5,73.5C 457.79,74.4077 459.123,74.241 460.5,73C 473.228,63.9411 486.228,55.2744 499.5,47C 502.76,46.2165 505.927,46.3832 509,47.5C 509.667,49.5 509.667,51.5 509,53.5C 503.587,57.4565 498.087,61.2899 492.5,65C 483.448,73.1384 481.948,82.3051 488,92.5C 494.207,98.3755 500.707,103.875 507.5,109C 514.054,113.787 518.054,120.12 519.5,128C 518.582,133.079 515.915,136.913 511.5,139.5 Z"/></g>
<g><path style="opacity:0.911" fill="#fefffe" d="M 416.5,37.5 C 426.392,36.851 434.892,39.851 442,46.5C 444.592,54.6345 441.592,59.3012 433,60.5C 425.287,59.2051 417.787,57.2051 410.5,54.5C 410.351,55.552 410.517,56.552 411,57.5C 418.667,64.5 426.333,71.5 434,78.5C 436.483,82.4105 435.65,85.2438 431.5,87C 421.26,86.3246 411.594,88.3246 402.5,93C 390.971,96.1921 385.805,92.0255 387,80.5C 388.251,77.6193 390.417,75.786 393.5,75C 396.311,74.3711 399.144,73.8711 402,73.5C 406.841,74.3839 411.674,74.8839 416.5,75C 410.906,70.2844 405.406,65.451 400,60.5C 394.934,53.5553 395.767,47.3886 402.5,42C 407.127,39.9561 411.794,38.4561 416.5,37.5 Z"/></g>
<g><path style="opacity:0.919" fill="#fefffe" d="M 258.5,38.5 C 276.09,43.1477 293.757,47.6477 311.5,52C 316.298,56.5724 316.798,61.7391 313,67.5C 300.744,74.4118 296.577,84.7451 300.5,98.5C 301.284,104.61 298.617,107.61 292.5,107.5C 287.059,107.891 284.392,105.391 284.5,100C 285.903,95.2364 286.403,90.403 286,85.5C 275.354,92.6038 263.688,96.9371 251,98.5C 243.554,98.3548 237.22,95.6881 232,90.5C 228.438,81.3487 230.605,73.8487 238.5,68C 247.391,62.6908 257.057,59.6908 267.5,59C 260.914,59.0181 254.747,57.5181 249,54.5C 246.77,45.9599 249.937,40.6265 258.5,38.5 Z M 290.5,64.5 C 296.825,64.0038 297.159,65.1705 291.5,68C 279.323,75.6136 266.156,80.447 252,82.5C 242.85,82.7659 241.684,80.2659 248.5,75C 261.797,68.2457 275.797,64.7457 290.5,64.5 Z"/></g>
<g><path style="opacity:0.918" fill="#fefffe" d="M 336.5,38.5 C 354.09,43.1477 371.757,47.6477 389.5,52C 394.298,56.5724 394.798,61.7391 391,67.5C 378.744,74.4118 374.577,84.7451 378.5,98.5C 379.284,104.61 376.617,107.61 370.5,107.5C 365.059,107.891 362.392,105.391 362.5,100C 363.903,95.2364 364.403,90.403 364,85.5C 353.354,92.6038 341.688,96.9371 329,98.5C 321.554,98.3548 315.22,95.6881 310,90.5C 306.338,81.5468 308.505,74.0468 316.5,68C 325.391,62.6908 335.057,59.6908 345.5,59C 338.914,59.0181 332.747,57.5181 327,54.5C 324.77,45.9599 327.937,40.6265 336.5,38.5 Z M 368.5,64.5 C 374.825,64.0038 375.159,65.1705 369.5,68C 357.323,75.6136 344.156,80.447 330,82.5C 320.85,82.7659 319.684,80.2659 326.5,75C 339.797,68.2457 353.797,64.7457 368.5,64.5 Z"/></g>
<g><path style="opacity:0.919" fill="#fefffe" d="M 589.5,47.5 C 589.5,49.5 589.5,51.5 589.5,53.5C 583.222,59.6057 576.722,65.6057 570,71.5C 554.759,88.9893 545.759,109.323 543,132.5C 541.988,135.202 540.488,137.535 538.5,139.5C 535.833,139.5 533.167,139.5 530.5,139.5C 525.326,134.854 524.159,129.187 527,122.5C 533.112,110.442 539.612,98.6085 546.5,87C 546.167,86.5 545.833,86 545.5,85.5C 537.396,89.9789 528.73,92.6456 519.5,93.5C 512.76,93.3886 507.927,90.3886 505,84.5C 502.937,67.1316 509.104,53.6316 523.5,44C 529.723,41.764 535.223,42.9306 540,47.5C 540.667,50.5 540.667,53.5 540,56.5C 534.623,62.2079 529.623,68.2079 525,74.5C 524.226,76.403 524.56,78.0696 526,79.5C 535.766,76.2001 544.933,71.7001 553.5,66C 561.5,59.3333 569.5,52.6667 577.5,46C 581.9,43.7164 585.9,44.2164 589.5,47.5 Z"/></g>
<g><path style="opacity:0.909" fill="#fefffe" d="M 146.5,43.5 C 151.121,42.9927 155.454,43.826 159.5,46C 161.282,48.2431 161.782,50.7431 161,53.5C 157.667,58.1667 153.667,62.1667 149,65.5C 148.333,66.8333 147.667,68.1667 147,69.5C 147.221,77.8241 147.221,86.1575 147,94.5C 139.946,101.151 132.946,101.151 126,94.5C 125.333,91.1667 125.333,87.8333 126,84.5C 130.784,79.044 134.784,73.044 138,66.5C 139,60.5 140,54.5 141,48.5C 142.73,46.5981 144.563,44.9314 146.5,43.5 Z"/></g>
<g><path style="opacity:0.912" fill="#fefffe" d="M 178.5,43.5 C 183.765,42.5706 188.265,43.9039 192,47.5C 192.634,52.2393 193.301,56.9059 194,61.5C 197.883,57.9496 202.049,54.7829 206.5,52C 225.66,47.4919 233.494,54.9919 230,74.5C 226.168,88.0012 217.501,96.3346 204,99.5C 195.715,98.8897 192.382,94.5563 194,86.5C 196.128,83.3699 198.628,80.5366 201.5,78C 207.75,74.752 212.25,69.9187 215,63.5C 216.08,60.7629 215.246,59.0963 212.5,58.5C 209.803,59.2324 207.136,60.0657 204.5,61C 197.311,66.3631 190.645,72.1964 184.5,78.5C 182.261,78.4257 181.261,77.259 181.5,75C 184.022,69.1033 185.022,62.9367 184.5,56.5C 183.178,56.33 182.011,56.6634 181,57.5C 173.762,67.4114 171.596,78.4114 174.5,90.5C 172.759,101.693 166.759,104.86 156.5,100C 154.959,98.4207 153.792,96.5873 153,94.5C 152.676,79.1251 157.01,65.1251 166,52.5C 169.811,48.8324 173.978,45.8324 178.5,43.5 Z"/></g>
</svg>
